<?xml version="1.0" encoding="UTF-8"?>
<svg version="1.1" xmlns="http://www.w3.org/2000/svg" width="92" height="92">
<path d="M0 0 C1.66611905 -0.042721 3.33382885 -0.04063832 5 0 C6 1 6 1 6.09765625 3.72265625 C6.06510417 6.81510417 6.03255208 9.90755208 6 13 C10.62 13 15.24 13 20 13 C20 9.04 20 5.08 20 1 C21.65 0.67 23.3 0.34 25 0 C26 1 26 1 26.09765625 3.72265625 C26.06510417 6.81510417 26.03255208 9.90755208 26 13 C30.62 13 35.24 13 40 13 C39.979375 11.040625 39.95875 9.08125 39.9375 7.0625 C39.91622812 5.04167124 39.92755947 3.01964199 40 1 C41 0 41 0 43.5625 -0.0625 C44.7690625 -0.0315625 44.7690625 -0.0315625 46 0 C47.32229189 2.64458379 47.09677194 4.67761301 47.0625 7.625 C47.05347656 8.62789062 47.04445313 9.63078125 47.03515625 10.6640625 C47.02355469 11.43492188 47.01195313 12.20578125 47 13 C48.299375 12.979375 49.59875 12.95875 50.9375 12.9375 C52.29165633 12.91600546 53.64756083 12.92851801 55 13 C56 14 56 14 56.09765625 15.84765625 C56.06510417 17.8984375 56.03255208 19.94921875 56 22 C57.15628906 21.98259766 57.15628906 21.98259766 58.3359375 21.96484375 C59.33882813 21.95582031 60.34171875 21.94679688 61.375 21.9375 C62.37273437 21.92589844 63.37046875 21.91429688 64.3984375 21.90234375 C67 22 67 22 69 23 C69.042721 24.66611905 69.04063832 26.33382885 69 28 C68 29 68 29 65.27734375 29.09765625 C62.18489583 29.06510417 59.09244792 29.03255208 56 29 C56 33.62 56 38.24 56 43 C59.96 43 63.92 43 68 43 C68.495 45.475 68.495 45.475 69 48 C68 49 68 49 65.27734375 49.09765625 C60.63867188 49.04882812 60.63867188 49.04882812 56 49 C56 53.62 56 58.24 56 63 C57.959375 62.979375 59.91875 62.95875 61.9375 62.9375 C63.95832876 62.91622812 65.98035801 62.92755947 68 63 C69 64 69 64 69.0625 66.5625 C69.041875 67.366875 69.02125 68.17125 69 69 C66.35541621 70.32229189 64.32238699 70.09677194 61.375 70.0625 C59.87066406 70.04896484 59.87066406 70.04896484 58.3359375 70.03515625 C57.56507812 70.02355469 56.79421875 70.01195313 56 70 C56.020625 71.299375 56.04125 72.59875 56.0625 73.9375 C56.08399454 75.29165633 56.07148199 76.64756083 56 78 C55 79 55 79 53.15234375 79.09765625 C51.1015625 79.06510417 49.05078125 79.03255208 47 79 C47.01160156 79.77085938 47.02320312 80.54171875 47.03515625 81.3359375 C47.04417969 82.33882813 47.05320312 83.34171875 47.0625 84.375 C47.07410156 85.37273437 47.08570312 86.37046875 47.09765625 87.3984375 C47 90 47 90 46 92 C44.33388095 92.042721 42.66617115 92.04063832 41 92 C40 91 40 91 39.90234375 88.27734375 C39.93489583 85.18489583 39.96744792 82.09244792 40 79 C35.38 79 30.76 79 26 79 C26 82.96 26 86.92 26 91 C23.525 91.495 23.525 91.495 21 92 C20 91 20 91 19.90234375 88.27734375 C19.93489583 85.18489583 19.96744792 82.09244792 20 79 C15.38 79 10.76 79 6 79 C6.020625 80.959375 6.04125 82.91875 6.0625 84.9375 C6.08377188 86.95832876 6.07244053 88.98035801 6 91 C5 92 5 92 2.4375 92.0625 C1.633125 92.041875 0.82875 92.02125 0 92 C-1.32229189 89.35541621 -1.09677194 87.32238699 -1.0625 84.375 C-1.05347656 83.37210937 -1.04445313 82.36921875 -1.03515625 81.3359375 C-1.02355469 80.56507812 -1.01195313 79.79421875 -1 79 C-2.9490625 79.0309375 -2.9490625 79.0309375 -4.9375 79.0625 C-6.29165633 79.08399454 -7.64756083 79.07148199 -9 79 C-10 78 -10 78 -10.09765625 76.15234375 C-10.04882812 73.07617188 -10.04882812 73.07617188 -10 70 C-10.77085938 70.01160156 -11.54171875 70.02320312 -12.3359375 70.03515625 C-13.84027344 70.04869141 -13.84027344 70.04869141 -15.375 70.0625 C-16.37273438 70.07410156 -17.37046875 70.08570312 -18.3984375 70.09765625 C-21 70 -21 70 -23 69 C-23.042721 67.33388095 -23.04063832 65.66617115 -23 64 C-22 63 -22 63 -19.27734375 62.90234375 C-14.63867188 62.95117188 -14.63867188 62.95117188 -10 63 C-10 58.38 -10 53.76 -10 49 C-13.96 49 -17.92 49 -22 49 C-22.33 47.35 -22.66 45.7 -23 44 C-22 43 -22 43 -19.27734375 42.90234375 C-14.63867188 42.95117188 -14.63867188 42.95117188 -10 43 C-10 38.38 -10 33.76 -10 29 C-12.9390625 29.0309375 -12.9390625 29.0309375 -15.9375 29.0625 C-17.95832876 29.08377188 -19.98035801 29.07244053 -22 29 C-23 28 -23 28 -23.0625 25.4375 C-23.041875 24.633125 -23.02125 23.82875 -23 23 C-20.35541621 21.67770811 -18.32238699 21.90322806 -15.375 21.9375 C-13.87066406 21.95103516 -13.87066406 21.95103516 -12.3359375 21.96484375 C-11.56507812 21.97644531 -10.79421875 21.98804687 -10 22 C-10.020625 20.700625 -10.04125 19.40125 -10.0625 18.0625 C-10.08399454 16.70834367 -10.07148199 15.35243917 -10 14 C-9 13 -9 13 -7.15234375 12.90234375 C-5.1015625 12.93489583 -3.05078125 12.96744792 -1 13 C-1.01160156 12.22914062 -1.02320312 11.45828125 -1.03515625 10.6640625 C-1.04417969 9.66117188 -1.05320312 8.65828125 -1.0625 7.625 C-1.07410156 6.62726562 -1.08570312 5.62953125 -1.09765625 4.6015625 C-1 2 -1 2 0 0 Z M-4 19 C-4 36.82 -4 54.64 -4 73 C13.82 73 31.64 73 50 73 C50 55.18 50 37.36 50 19 C32.18 19 14.36 19 -4 19 Z " fill="#86B4D2" transform="translate(23,0)"/>
<path d="M0 0 C1.06734375 -0.00257812 2.1346875 -0.00515625 3.234375 -0.0078125 C4.91273437 0.00378906 4.91273437 0.00378906 6.625 0.015625 C7.74390625 0.00789063 8.8628125 0.00015625 10.015625 -0.0078125 C11.08296875 -0.00523438 12.1503125 -0.00265625 13.25 0 C14.23226562 0.00225586 15.21453125 0.00451172 16.2265625 0.00683594 C18.625 0.265625 18.625 0.265625 20.625 2.265625 C20.88378906 4.6640625 20.88378906 4.6640625 20.890625 7.640625 C20.89449219 9.24164063 20.89449219 9.24164063 20.8984375 10.875 C20.89070313 11.99390625 20.88296875 13.1128125 20.875 14.265625 C20.88273437 15.38453125 20.89046875 16.5034375 20.8984375 17.65625 C20.89585938 18.72359375 20.89328125 19.7909375 20.890625 20.890625 C20.88836914 21.87289062 20.88611328 22.85515625 20.88378906 23.8671875 C20.625 26.265625 20.625 26.265625 18.625 28.265625 C16.2265625 28.52441406 16.2265625 28.52441406 13.25 28.53125 C12.18265625 28.53382812 11.1153125 28.53640625 10.015625 28.5390625 C8.33726563 28.52746094 8.33726563 28.52746094 6.625 28.515625 C5.50609375 28.52335937 4.3871875 28.53109375 3.234375 28.5390625 C2.16703125 28.53648438 1.0996875 28.53390625 0 28.53125 C-0.98226562 28.52899414 -1.96453125 28.52673828 -2.9765625 28.52441406 C-5.375 28.265625 -5.375 28.265625 -7.375 26.265625 C-7.63378906 23.8671875 -7.63378906 23.8671875 -7.640625 20.890625 C-7.64320312 19.82328125 -7.64578125 18.7559375 -7.6484375 17.65625 C-7.63683594 15.97789063 -7.63683594 15.97789063 -7.625 14.265625 C-7.63273437 13.14671875 -7.64046875 12.0278125 -7.6484375 10.875 C-7.64585938 9.80765625 -7.64328125 8.7403125 -7.640625 7.640625 C-7.63836914 6.65835938 -7.63611328 5.67609375 -7.63378906 4.6640625 C-7.10415251 -0.24456913 -4.21168741 0.00967251 0 0 Z M-0.375 7.265625 C-0.375 11.885625 -0.375 16.505625 -0.375 21.265625 C4.245 21.265625 8.865 21.265625 13.625 21.265625 C13.625 16.645625 13.625 12.025625 13.625 7.265625 C9.005 7.265625 4.385 7.265625 -0.375 7.265625 Z " fill="#86B4D2" transform="translate(39.375,31.734375)"/>
</svg>
